<svg xmlns="http://www.w3.org/2000/svg" x="0px" y="0px"
width="48" height="48"
viewBox="0 0 172 172"
style=" fill:#000000;"><g fill="none" fill-rule="nonzero" stroke="none" stroke-width="1" stroke-linecap="butt" stroke-linejoin="miter" stroke-miterlimit="10" stroke-dasharray="" stroke-dashoffset="0" font-family="none" font-weight="none" font-size="none" text-anchor="none" style="mix-blend-mode: normal"><path d="M0,172v-172h172v172z" fill="none"></path><g><path d="M8.50755,166.53255l-4.20755,1.16745l1.16745,-4.20755l74.7125,-74.7125l3.0401,3.0401z" fill="#a3b7cc"></path><path d="M70.047,68.52695c22.1235,-10.0577 32.2973,-18.38465 42.87315,-42.23675l32.7531,32.75525c-24.95075,10.1953 -34.1764,19.2597 -42.89465,42.2131z" fill="#e87070"></path><path d="M113.262,28.15425l30.5128,30.5128c-23.6242,9.8599 -32.9036,18.9501 -41.4047,40.66295l-30.4698,-30.47195c20.9883,-9.6965 31.0976,-18.12665 41.3617,-40.7038M112.56755,24.41755c-10.7844,24.9056 -20.63355,33.1315 -44.38245,43.76755l35.0149,35.0149c8.7634,-23.7489 17.458,-32.98315 44.38245,-43.76755l-35.0149,-35.0149z" fill="#e74c3c"></path><path d="M150.55375,63.425c-2.77995,0 -5.39435,-1.0836 -7.3616,-3.0487l-31.56845,-31.5706c-1.96725,-1.96725 -3.0487,-4.5795 -3.0487,-7.3573c0,-2.7778 1.0836,-5.3922 3.0487,-7.3573l7.93135,-8.25385l46.6077,46.6077l-8.2388,7.9163c-1.978,1.98015 -4.59025,3.06375 -7.3702,3.06375z" fill="#e74c3c"></path><path d="M119.5701,7.3702l45.05755,45.05755l-7.47985,7.18745c-1.7587,1.763 -4.1022,2.7348 -6.59405,2.7348c-2.494,0 -4.8375,-0.9718 -6.6005,-2.7348l-31.56845,-31.56845c-1.763,-1.763 -2.7348,-4.1065 -2.7348,-6.59835c0,-2.49185 0.9718,-4.83535 2.7649,-6.62845l7.1552,-7.44975M119.54,4.3l-8.67525,9.03c-4.4849,4.4849 -4.4849,11.7519 0,16.2368l31.56845,31.56845c2.24245,2.24245 5.1815,3.36475 8.12055,3.36475c2.93905,0 5.87595,-1.1223 8.11625,-3.36475l9.03,-8.67525l-48.16,-48.16z" fill="#e74c3c"></path><g fill="#e74c3c"><path d="M35.92005,74.1277l6.0802,-6.0802c4.36665,-4.36665 10.1695,-6.77035 16.3443,-6.77035c6.1748,0 11.97765,2.40585 16.3443,6.77035l29.2701,29.2701c9.00635,9.01065 9.00635,23.6715 0,32.68215l-6.0845,6.0802z"></path><path d="M58.34455,62.35c5.88455,0 11.4208,2.2919 15.5832,6.45645l29.2701,29.2701c8.5871,8.5914 8.5871,22.5707 0,31.1621l-5.32555,5.32125l-60.4322,-60.4322l5.32125,-5.32125c4.1624,-4.16455 9.6965,-6.45645 15.5832,-6.45645M58.34455,60.2c-6.18985,0 -12.3797,2.36285 -17.10325,7.0864l-6.8413,6.8413l63.4723,63.4723l6.8456,-6.8413c9.4428,-9.4471 9.4428,-24.7551 0,-34.2022l-29.2701,-29.2701c-4.72355,-4.72355 -10.9134,-7.0864 -17.10325,-7.0864z"></path></g></g></g></svg>